<?xml version="1.0" encoding="UTF-8"?>
<svg xmlns="http://www.w3.org/2000/svg" id="a" width="865.76" height="682.89" viewBox="0 0 865.76 682.89">
  <rect x="411.88" y="404.21" width="352.5" height="22" fill="#D63484" stroke="#002346" stroke-miterlimit="10"></rect>
  <rect x="666.38" y="404.21" width="98" height="22" fill="#D63484" stroke="#002346" stroke-miterlimit="10"></rect>
  <rect x="465.38" y="412.21" width="160" height="6" fill="#fff" stroke="#002346" stroke-miterlimit="10"></rect>
  <rect x="380.88" y="426.21" width="383.5" height="55.5" fill="#e6e7e8" stroke="#002346" stroke-miterlimit="10"></rect>
  <rect x="674.88" y="426.21" width="89.5" height="55.5" fill="#fff" stroke="#002346" stroke-miterlimit="10"></rect>
  <rect x="420.38" y="438.96" width="206" height="30" fill="#F8F4EC" stroke="#002346" stroke-miterlimit="10"></rect>
  <rect x="296.38" y="481.71" width="510" height="61" fill="#F8F4EC" stroke="#002346" stroke-miterlimit="10"></rect>
  <rect x="296.38" y="488.21" width="502" height="48" fill="#fff" stroke="#002346" stroke-miterlimit="10"></rect>
  <rect x="693.38" y="488.21" width="105" height="48" fill="#e6e7e8" stroke="#002346" stroke-miterlimit="10"></rect>
  <g>
    <line x1="297.26" y1="499.21" x2="798.57" y2="499.21" fill="none" stroke="#002346" stroke-linecap="round" stroke-linejoin="round"></line>
    <line x1="297.26" y1="512.21" x2="798.57" y2="512.21" fill="none" stroke="#002346" stroke-linecap="round" stroke-linejoin="round"></line>
    <line x1="297.26" y1="525.21" x2="798.57" y2="525.21" fill="none" stroke="#002346" stroke-linecap="round" stroke-linejoin="round"></line>
  </g>
  <rect x="95.41" y="167.96" width="8.03" height="163" transform="translate(-58.96 32.6) rotate(-14.41)" fill="#fff" stroke="#002346" stroke-miterlimit="10"></rect>
  <rect x="136.41" y="167.96" width="8.03" height="163" transform="translate(-57.67 42.8) rotate(-14.41)" fill="#fff" stroke="#002346" stroke-miterlimit="10"></rect>
  <rect x="220.41" y="153.96" width="8.03" height="163" transform="translate(-51.54 63.27) rotate(-14.41)" fill="#fff" stroke="#002346" stroke-miterlimit="10"></rect>
  <rect x="253.41" y="145.96" width="8.03" height="163" transform="translate(-48.51 71.23) rotate(-14.41)" fill="#fff" stroke="#002346" stroke-miterlimit="10"></rect>
  <polygon points="59.38 155.71 67.88 189.21 256.88 158.21 248.38 127.71 59.38 155.71" fill="#e6e7e8" stroke="#002346" stroke-miterlimit="10"></polygon>
  <path d="M676.42,364.04c-2.24,.56-11.58,1.56-11.88-.46-.45-3.02,20.8-25.83,28.61-30.32,7.44-4.27,31.62-14.03,37.69-14.53l1.09,19.4c-3.4,1.06-30.95-.15-36.55,3.22-2.43,1.46-5.44,7.14-11.72,16.26-2.2,3.21-5.91,6.1-7.24,6.44Z" fill="#fff" stroke="#002346" stroke-miterlimit="10"></path>
  <path d="M671.77,364.28c-2.25,.56-10.93,1.53-11.23-.49-.45-3.02,20.8-25.83,28.61-30.32,7.44-4.28,35.62-14.24,41.69-14.75l1.09,19.4c-3.4,1.06-34.95,.06-40.54,3.42-2.43,1.47-6.12,7.19-12.38,16.29-2.24,3.22-5.91,6.11-7.24,6.44Z" fill="#F8F4EC" stroke="#002346" stroke-miterlimit="10"></path>
  <path d="M761.47,385.31c1.98,.72,9.71,.73,10.95-1,1.85-2.62-24.22-35.5-38.81-40.94-13.63-5.04-203.58-31.52-207.49-31.91l.66,15.17c26.41,2.7,194.02,20.31,204.54,24.23,6.86,2.56,16.24,17.5,22.9,27.73,2.72,4.19,4.93,5.9,7.24,6.73Z" fill="#fff" stroke="#002346" stroke-miterlimit="10"></path>
  <path d="M758.22,385.48c1.98,.72,9.72,.73,10.95-1,1.85-2.62-24.1-36.34-38.62-41.78-13.63-5.04-200.47-30.88-204.38-31.25l-2.63,15.37c26.4,2.7,194.01,20.3,204.53,24.24,6.86,2.55,16.21,17.45,22.92,27.78,2.7,4.1,4.91,5.8,7.22,6.64Z" fill="#F8F4EC" stroke="#002346" stroke-miterlimit="10"></path>
  <path d="M730.84,318.74s-14.23-.7-16.59-1.05c-3.57-.55-10.45-3.11-17.27-4.78-2.12-.52-4.21-1.12-6.27-1.81-2.87-.95-5.86-1.64-8.97-2.04-26.23-3.37-50.22,15.17-53.59,41.39-3.34,26.23,15.19,50.2,41.41,53.59h0c25.64,3.28,49.13-14.36,53.31-39.66,3.59-16.63,2.63-18,4.35-23.23,.84-2.6,4.71-3.02,4.71-3.02l-1.09-19.4Zm-14.23,42.92c-2.86,22.67-23.56,38.74-46.23,35.88-22.67-2.86-38.74-23.56-35.88-46.23,2.38-18.82,17.25-33.61,36.07-35.9,3.37-.41,6.79-.4,10.16,.02,22.67,2.86,38.74,23.56,35.88,46.23Z" fill="#fff" stroke="#002346" stroke-miterlimit="10"></path>
  <path d="M632.18,350.75c-2.76,22.67,12.93,43.46,35.07,46.42,22.14,2.96,42.41-13.14,45.23-35.79s-12.94-43.46-35.07-46.43c-3.32-.44-6.68-.45-10-.04-18.56,2.48-33.07,17.24-35.22,35.84Z" fill="#ebebeb" opacity=".1"></path>
  <g>
    <polygon points="218.66 430.88 237.88 568.21 247.88 568.21 227.34 428.36 218.66 430.88" fill="#fff" stroke="#002346" stroke-miterlimit="10"></polygon>
    <polygon points="155.82 432.13 132.42 568.81 141.95 571.85 164.86 432.36 155.82 432.13" fill="#fff" stroke="#002346" stroke-miterlimit="10"></polygon>
    <path d="M127.38,544.71s37.22,44.05,128.61,9.02l19.38,28.44s-113.17,42.18-163.08-26.64l15.09-10.82Z" fill="#e6e7e8" stroke="#002346" stroke-miterlimit="10"></path>
  </g>
  <g>
    <polygon points="356.66 408.38 375.88 545.71 385.88 545.71 365.34 405.86 356.66 408.38" fill="#fff" stroke="#002346" stroke-miterlimit="10"></polygon>
    <polygon points="293.82 409.63 270.42 546.31 279.95 549.35 302.86 409.86 293.82 409.63" fill="#fff" stroke="#002346" stroke-miterlimit="10"></polygon>
    <path d="M265.38,522.21s37.22,44.05,128.61,9.02l19.38,28.44s-113.17,42.18-163.08-26.64l15.09-10.82Z" fill="#e6e7e8" stroke="#002346" stroke-miterlimit="10"></path>
  </g>
  <polygon points="120.01 339.23 141.38 420.71 147.38 416.71 126.35 336.37 120.01 339.23" fill="#fff" stroke="#002346" stroke-miterlimit="10"></polygon>
  <path d="M345.97,476.65c.13,.23,1.35-.24,2.88,0s2.66,.94,2.82,.73c.15-1.58-5.5-2.32-5.7-.73Z" fill="#fff"></path>
  <path d="M218.71,434.27l-60.14,5.83-23.32,1.23s-4-.31-4.91-10.74c0,0-3.37-14.73,5.52-15,0,0,50.43-8.38,58.51-8.18l79.43-7.69s13.85-2.85,17.43,5.13c0,0,5.42,3.68,14.32,18.72,0-.04-62.6,7.94-86.84,10.7Z" fill="#e6e7e8" stroke="#002346" stroke-miterlimit="10"></path>
  <path d="M453.19,424.88s1.13,12.71,9.88,17.5c0,0,.23,.16,.67,.47,6.62,4.64,13.72,8.54,21.08,11.87,4.75,2.15,9.54,5.23,8.18,8.56,0,0,.57,4.52-13.27,2.54,0,0-19.76-1.69-22.87-2.82,0,0-10.45-2.67-20.47,1.77,0,0,4.1-18.43,16.8-39.89Z" fill="#f2b3c1" stroke="#002346" stroke-miterlimit="10"></path>
  <path d="M499.81,381.75s5.62,5.58,27.36,15.74c0,0,7.34,3.39,4.8,8.76,0,0,3.1,7.9-4.8,8.47,0,0-5.65,9.6-18.64,2.54,0,0-5.08,7.62-14.4,1.69,0,0-3.67,7.62-15.87-4.34l-7.06-7.63s20.64-9.57,28.61-25.23Z" fill="#f2b3c1" stroke="#002346" stroke-miterlimit="10"></path>
  <path d="M141.43,359.74s16.67,44.39,38.32,31.07l47.42-43.91-22-8.39s-1.35,2.69-6.92,3.84l-56.82,17.39Z" fill="#fff" stroke="#002346" stroke-miterlimit="10"></path>
  <path d="M205.2,338.51s-7.09,29.55-37.86,48.17c-3.96,2.34-8.11,4.35-12.4,6-5.86,2.3-19,9.6-19.76,29.06l5.12,54.33s-1.28,25.62,19.48,1.28c0,0,8.45-9.48,8.2-42.28,0,0-2.31-24.6,26.39-27.68l79.43-7.69s13.84-2.56,17.43,5.13c0,0,11.11,18.24,28.92,51.62,6.15,11.52,11.57,23.43,16.26,35.62l1.71,4.46s5.13,13.06,21.53,26.39c0,0,15.88,7.69,21,29.72,0,0,8.71,38.18,20,36.65,0,0,8.2-2.05,15.88-31.52,0,0,9.1-35,19.86-93,0,0,10.08-39.93,30.92-55.41,1.14-.84,2.36-1.57,3.64-2.18,5.08-2.5,21.74-11.51,28.86-25.43,0,0-25.35-19.87-42.43-36.02-8-7.57-12.95-17.79-14.06-28.75-.5-4.91-.94-10.19-1.09-14.66-.05-1.63,.01-3.26,.18-4.88,.62-6.35,.07-29.65-36.37-51,0,0-4.49-13.98-13.85-26.49-13.71-18.34-39.57-22.37-58.03-8.82-5.58,4.09-10.74,9.46-12.69,16.06l-92.25,73-6.67,10.51-15,21.45s1.36,3.35-2.36,6.36Z" fill="#D63484" stroke="#002346" stroke-miterlimit="10"></path>
  <path d="M128.03,197.98s31.52,23.57,45.1,34.85c0,0,4.1-4.87,3.08-31,0,0-9.74-6.66-8.2-14.86l-15.12-27.67-4.38,1s-1.55,29.52-20.48,37.68Z" fill="#f2b3c1" stroke="#002346" stroke-miterlimit="10"></path>
  <path d="M141.46,359.7l60-18.23s6.83-2.74,6.47-9.17l14.61-21.57,44.68-18.22s-12.51-11-18.08-25.63c-.86-2.28-2.27-4.3-4.11-5.9-3.64-3.15-10.4-10.08-18.45-23.42-3.94-6.52-8.77-12.48-14.6-17.39-3.93-3.31-8.62-6.5-13.73-8.42,0,0-13.42-4.82-22.07-9.92,0,.03,1.02,22.26-3.08,31.04-7.39-6-14.99-12-22.81-18-7.51-5.8-14.93-11.43-22.26-16.89-4.97,1.45-9.8,3.37-14.42,5.72-7.5,3.62-15.58,8.75-17.9,14.83l45.75,141.17Z" fill="#F8F4EC" stroke="#002346" stroke-miterlimit="10"></path>
  <path d="M218.27,333.65c1.14-.36,4.28-2.81,2.5-18.59l-6.74,.92s-.35,12.3,3.57,17.39c.17,.2,.41,.3,.67,.28Z" fill="#F8F4EC" stroke="#002346" stroke-miterlimit="10"></path>
  <path d="M249.21,347.16c-.99,0-1.8-.81-1.8-1.8,0-.73,.45-1.39,1.13-1.67l92.21-36.57,13.33-45.29c0-.14,.93-3.43-2.05-7.69l-.06-.08-29.37-47.54-75.14,38.2c-.85,.51-1.96,.24-2.47-.62-.51-.85-.24-1.96,.62-2.47,.07-.04,.15-.08,.22-.11l76.62-39c.83-.42,1.85-.14,2.34,.66l30.24,48.95c4,5.76,2.58,10.54,2.52,10.74l-13.61,46.11c-.15,.53-.54,.96-1.06,1.16l-93,36.9c-.21,.08-.44,.12-.67,.12Z" fill="#F8F4EC" stroke="#002346" stroke-miterlimit="10"></path>
  <rect x="152.9" y="117.59" width="48" height="73.97" rx="24" ry="24" transform="translate(24.06 -23.83) rotate(8.27)" fill="#f2b3c1" stroke="#002346" stroke-miterlimit="10"></rect>
  <path d="M148.38,287.71c-4.42-57.51-36.97-69.78-44.42-71.84-1.38-.38-2.84-.49-4.23-.15-3.46,.85-6.14,3.83-6.44,7.57-.01,.16-.02,.33-.03,.49-.08,3.15,.01,6.3,.27,9.44,1.64,21.83,.54,45.02,4.84,66.49,0,0,1.95,21.39,15.17,27.82,0,0,15.37,4.29,52.89,6.43l50.38-.34c.45,0,.72-.52,.45-.88-1.73-2.28-4.81-10.39-1.86-38.8l-67.03-6.23Z" fill="#F8F4EC" stroke="#002346" stroke-miterlimit="10"></path>
  <path d="M241.52,246.45s6.15,16.91,8.2,21.27c0,0,2.73,10.45,17.51,24.83l79.35-32.26s-22-23.07-25-41.82c-.14-.77,.37-1.51,1.15-1.65,.64-.12,1.28,.22,1.54,.81v.09s8.65,26.81,25.75,41.61c-8.21,11.9-13.36,25.64-15,40l-89.24,36.84,4.62,8.2,91.73-35.88,13.58-46.12c.66-3.27-.19-6.65-2.3-9.23l-30.24-48.94-81.65,42.25Z" fill="#e6e7e8" stroke="#002346" stroke-miterlimit="10"></path>
  <path d="M245.89,336.05c.39-1.9,6.7-31.8,21.34-43.5l79.35-32.26s-23.42-24.83-25-41.82c-.03-.74,.45-1.41,1.16-1.62,0,0,.92-.39,1.53,.78,0,0,8.11,25.94,25.79,41.7,0,0-11.71,15.07-15,40l-89.1,36.77s-.08-.01-.07-.06Z" fill="#fff" stroke="#002346" stroke-miterlimit="10"></path>
  <path d="M318.53,206.62l-6.21,3.25c-.72,.39-1.62,.13-2.01-.59-.05-.09-.09-.19-.12-.3-.34-1.22,0-3.54,3.08-7.88,0,0,8.78-11.94,12.41-7.94,.42,.5,.64,1.13,.63,1.78,0,1.39,.34,4.23,2.84,4.62,0,0,5.13-.07,4.36,6.21,0,0,6.34,1.86,5.89,8.07,0,0,3.78,10.19-2.11,13l-5.57-8.86s-6.41,1.28-5.9-6.66c0,.03-9.6,2.73-7.29-4.7Z" fill="#f2b3c1" stroke="#002346" stroke-miterlimit="10"></path>
  <line x1="318.53" y1="206.62" x2="325.5" y2="200.45" fill="none" stroke="#002346" stroke-linecap="round" stroke-linejoin="round"></line>
  <path d="M325.82,211.35c.26-.07,6.22-4.55,6.22-4.55" fill="none" stroke="#002346" stroke-linecap="round" stroke-linejoin="round"></path>
  <line x1="332.48" y1="217.82" x2="338.57" y2="214.1" fill="none" stroke="#002346" stroke-linecap="round" stroke-linejoin="round"></line>
  <line x1="494.13" y1="418.95" x2="482.9" y2="407.63" fill="none" stroke="#002346" stroke-linecap="round" stroke-linejoin="round"></line>
  <line x1="508.53" y1="417.26" x2="494.05" y2="402.76" fill="none" stroke="#002346" stroke-linecap="round" stroke-linejoin="round"></line>
  <line x1="527.17" y1="414.72" x2="503.78" y2="396.61" fill="none" stroke="#002346" stroke-linecap="round" stroke-linejoin="round"></line>
  <line x1="531.97" y1="406.25" x2="511.09" y2="393.79" fill="none" stroke="#002346" stroke-linecap="round" stroke-linejoin="round"></line>
  <g>
    <circle cx="158.28" cy="101.93" r="14" fill="#002346" stroke="#002346" stroke-miterlimit="10"></circle>
    <circle cx="164.8" cy="111.85" r="10.77" fill="#F8F4EC" stroke="#002346" stroke-miterlimit="10"></circle>
    <path d="M199.28,134.37s-9.1,6.25-27.51,4.27c0,0-.99,9.2-14.85,13.84,0,0-11.54,10.23-2.54,27.23,0,0-5.44,.17-13.3-4.18,0,0-6.27,4.31-14.93,2.21-3.51-.85-6.3-3.61-7.07-7.14-1.03-4.73-.35-12.73,7.39-25.22,0,0,21.39-45.12,49.3-39.93,0,0,13.24,.39,23.12,8.29,9.96,7.97,9.07,28.88,3.22,36.61l-1.09-4.45c-.93-3.78-1.51-7.64-1.75-11.53h0Z" fill="#002346" stroke="#002346" stroke-miterlimit="10"></path>
  </g>
  <ellipse cx="149.96" cy="151.57" rx="8.87" ry="6.59" transform="translate(-24.37 274.33) rotate(-80.46)" fill="#f2b3c1" stroke="#002346" stroke-miterlimit="10"></ellipse>
  <line x1="157.99" y1="150.55" x2="170.38" y2="156.71" fill="none" stroke="#002346" stroke-linecap="round" stroke-linejoin="round"></line>
  <g>
    <ellipse cx="176.88" cy="159.71" rx="7" ry="7.5" fill="#fff" opacity=".36"></ellipse>
    <ellipse cx="176.88" cy="159.71" rx="7" ry="7.5" fill="none" stroke="#002346" stroke-miterlimit="10"></ellipse>
  </g>
  <path d="M184.38,160.71s4-2,5,2" fill="none" stroke="#002346" stroke-linecap="round" stroke-linejoin="round"></path>
  <line x1="202.87" y1="165.58" x2="199.72" y2="164.01" fill="none" stroke="#002346" stroke-linecap="round" stroke-linejoin="round"></line>
  <g>
    <ellipse cx="195.88" cy="164.71" rx="7" ry="7.5" fill="#fff" opacity=".36"></ellipse>
    <ellipse cx="195.88" cy="164.71" rx="7" ry="7.5" fill="none" stroke="#002346" stroke-miterlimit="10"></ellipse>
  </g>
  <path d="M190.16,224.64s5.22,17.07,18.22,24.07c0,0,13.3,5.85,10.15,26.92,0,0-1.25,5.38,.3,9.23" fill="none" stroke="#002346" stroke-linecap="round" stroke-linejoin="round"></path>
  <path d="M205.03,215.44s2.04,16.54-4.55,27.15" fill="none" stroke="#002346" stroke-linecap="round" stroke-linejoin="round"></path>
  <path d="M368.38,242.71s41.3,109.33-35.35,157.16" fill="none" stroke="#002346" stroke-linecap="round" stroke-linejoin="round"></path>
  <path d="M262.43,381.61s47.93,1.02,84.94-29.94" fill="none" stroke="#002346" stroke-linecap="round" stroke-linejoin="round"></path>
  <line x1="406.04" y1="246.44" x2="420.88" y2="287.21" fill="none" stroke="#002346" stroke-linecap="round" stroke-linejoin="round"></line>
  <path d="M457.38,345.73s-23-16.02-31-45.02" fill="none" stroke="#002346" stroke-linecap="round" stroke-linejoin="round"></path>
  <path d="M147.49,426.98s2.45-17.98,20.17-24.55c3.01-1.12,6.2-1.66,9.41-1.85,8.19-.48,33.07-4.07,36.83-30.02" fill="none" stroke="#002346" stroke-linecap="round" stroke-linejoin="round"></path>
  <polygon points="204.88 406.21 195.88 407.21 195.88 304.21 204.88 304.21 204.88 406.21" fill="#fff" stroke="#002346" stroke-miterlimit="10"></polygon>
  <line x1="228.63" y1="406.98" x2="231.62" y2="430.3" fill="none" stroke="#002346" stroke-linecap="round" stroke-linejoin="round"></line>
  <path d="M334.55,270.08s-7.32,10.91-9.17,27.63" fill="none" stroke="#002346" stroke-linecap="round" stroke-linejoin="round"></path>
  <path d="M325.55,273.08s-7.32,10.91-9.17,27.63" fill="none" stroke="#002346" stroke-linecap="round" stroke-linejoin="round"></path>
  <path d="M315.55,278.08s-7.32,10.91-9.17,27.63" fill="none" stroke="#002346" stroke-linecap="round" stroke-linejoin="round"></path>
  <path d="M306.55,281.08s-7.32,10.91-9.17,27.63" fill="none" stroke="#002346" stroke-linecap="round" stroke-linejoin="round"></path>
  <path d="M297.55,285.08s-7.32,10.91-9.17,27.63" fill="none" stroke="#002346" stroke-linecap="round" stroke-linejoin="round"></path>
  <path d="M288.55,288.08s-7.32,10.91-9.17,27.63" fill="none" stroke="#002346" stroke-linecap="round" stroke-linejoin="round"></path>
  <path d="M278.55,293.08s-7.32,10.91-9.17,27.63" fill="none" stroke="#002346" stroke-linecap="round" stroke-linejoin="round"></path>
  <path d="M269.55,296.08s-7.32,10.91-9.17,27.63" fill="none" stroke="#002346" stroke-linecap="round" stroke-linejoin="round"></path>
  <path d="M215.41,293.98l31.23-1.41s14.35-.94,22.49-.43c2.44,.15,4.88,.27,7.32,.21,.89-.02,1.83,.04,2.58,.29,.75,.26,1.15,1.08,.89,1.83-.07,.21-.19,.4-.35,.56-1.33,1.31-4,3.56-6.58,3.19,0,0,20.24,.51,19.73,4.36,0,0,1.16,5.72-24.6,3.59,0,0,.77,6.91-9.48,7.94,0,0-1,3.98-5.14,7.04-3.06,2.26-6.92,3.13-10.69,2.72-2.3-.25-5.23-.76-7.56-1.82-1.39-.63-2.79-1.21-4.25-1.63-5.5-1.56-11.17-2.47-16.9-2.72-.07-7.93,.36-15.85,1.3-23.72Z" fill="#f2b3c1" stroke="#002346" stroke-miterlimit="10"></path>
  <line x1="268.17" y1="306.16" x2="250.64" y2="305.4" fill="none" stroke="#002346" stroke-linecap="round" stroke-linejoin="round"></line>
  <line x1="258.69" y1="314.1" x2="249.59" y2="313.71" fill="none" stroke="#002346" stroke-linecap="round" stroke-linejoin="round"></line>
  <line x1="274.57" y1="298.08" x2="251.77" y2="297.96" fill="none" stroke="#002346" stroke-linecap="round" stroke-linejoin="round"></line>
  <path d="M108.21,330.19l4.29,12.87c.21,.62,.9,.94,1.51,.7l111.22-44.49c1.48-.59,2.21-2.25,1.65-3.74l-4.04-10.77c-.54-1.44-2.1-2.21-3.57-1.78l-26.99,7.96c-.65,.19-1.29,.43-1.91,.71l-81.56,37.13c-.53,.24-.8,.85-.61,1.4Z" fill="#e6e7e8" stroke="#002346" stroke-miterlimit="10"></path>
  <g>
    <line x1="675.88" y1="441.46" x2="764.45" y2="441.46" fill="none" stroke="#002346" stroke-linecap="round" stroke-linejoin="round"></line>
    <line x1="674.88" y1="453.96" x2="763.45" y2="453.96" fill="none" stroke="#002346" stroke-linecap="round" stroke-linejoin="round"></line>
    <line x1="675.88" y1="466.46" x2="764.45" y2="466.46" fill="none" stroke="#002346" stroke-linecap="round" stroke-linejoin="round"></line>
  </g>
  <rect x="672.38" y="408.21" width="92" height="14" fill="#fff" stroke="#002346" stroke-miterlimit="10"></rect>
  <path d="M591.98,322.23c-6.74-9.25-15.83-14.31-25.59-14.27-1.47,0-2.92,.14-4.36,.38,.05-.03,.08-.04,.08-.04-7.98,.62-16.97,4.21-21.22,4.38-2.39,.09-12.79-.37-12.79-.37l-2.59,14s3.94,2.39,4.5,5.07c1.15,5.46-.7,8.57,1.04,26.31,.8,25.6,16.61,46.08,35.82,45.98,1.05-.02,2.1-.1,3.14-.24,18.18-2.23,32.41-22.82,32.25-47.84-.07-12.56-3.72-24.43-10.29-33.36Zm-25.15,75.03c-16.11,.09-29.31-18.44-29.44-41.3-.06-11.25,3.06-21.81,8.76-29.72l.02-.06c4.89-6.8,11.15-10.88,17.83-11.76,.81-.09,1.62-.14,2.43-.13,7.6,0,14.85,4.14,20.41,11.69,5.74,7.87,8.96,18.39,9.01,29.65,.11,22.89-12.91,41.54-29.02,41.63Z" fill="#fff" stroke="#002346" stroke-miterlimit="10"></path>
  <path d="M545.1,326.67c-5.49,7.88-8.47,18.38-8.41,29.57,.16,22.74,12.95,41.17,28.53,41.11,15.58-.06,28.13-18.6,27.99-41.33-.05-11.19-3.21-21.67-8.79-29.49-5.38-7.52-12.4-11.65-19.75-11.67-.78,0-1.56,.03-2.34,.12-6.49,.92-12.53,4.93-17.24,11.69Z" fill="#ebebeb" opacity=".1"></path>
  <path d="M625.51,355.57l4.07-4.92c-7.29-6.06-24.12-14.17-35.74-1.6l4.7,4.34c10.4-11.28,26.3,1.63,26.97,2.18Z" fill="#F8F4EC" stroke="#002346" stroke-miterlimit="10"></path>
  <g>
    <path d="M726.56,318.29s-14.22-.69-16.58-1.05c-3.55-.54-10.34-3.06-17.1-4.73-2.07-.51-4.12-1.11-6.15-1.79-2.97-1-6.08-1.73-9.31-2.14-26.24-3.33-50.22,15.25-53.54,41.5-3.32,26.2,15.19,50.15,41.39,53.54h.08s.02,0,.03,0c25.79,3.27,49.37-14.62,53.34-40.14,3.43-16.26,2.48-18.27,4.19-23.45,.84-2.59,4.67-3.98,4.67-3.98l-1.01-17.76Zm-14.11,43.01c-2.87,22.71-23.61,38.78-46.32,35.91-22.71-2.87-38.78-23.61-35.91-46.32v-.04c2.4-18.81,17.27-33.6,36.09-35.89,3.4-.41,6.83-.41,10.22,.02,22.71,2.87,38.78,23.61,35.91,46.32Z" fill="#F8F4EC" stroke="#002346" stroke-miterlimit="10"></path>
    <polygon points="665.26 403.62 665.26 403.62 665.25 403.62 665.26 403.62" fill="#F8F4EC" stroke="#002346" stroke-miterlimit="10"></polygon>
  </g>
  <path d="M589.25,322.36c-6.69-9.25-15.79-14.31-25.54-14.26-1.46,0-2.91,.14-4.33,.38-7.96,.61-16.67,3.45-20.91,3.61-2.34,.1-12.97-1.21-12.97-1.21l-2.65,15.57s3.94,2.39,4.5,5.07c1.14,5.48-.71,8.59,1.04,26.42,.84,25.54,16.63,45.97,35.82,45.87,1.03-.02,2.07-.11,3.09-.25,18.17-2.23,32.41-22.87,32.25-47.84-.07-12.56-3.72-24.43-10.3-33.36Zm-60.75,37.12s.01-.06,.03-.15c0,.05,0,.09,.01,.14h-.04Zm35.68,37.91c-16.12,.09-29.31-18.44-29.44-41.29-.06-11.23,3.04-21.8,8.73-29.72l.04-.08c4.88-6.79,11.15-10.88,17.85-11.75,.81-.09,1.62-.14,2.43-.13,7.6,0,14.85,4.14,20.4,11.69,5.74,7.87,8.95,18.39,9.01,29.65,.11,22.89-12.9,41.54-29.02,41.63Z" fill="#F8F4EC" stroke="#002346" stroke-miterlimit="10"></path>
</svg>
